<?xml version="1.0" encoding="utf-8"?>
<!-- Generator: Adobe Illustrator 22.1.0, SVG Export Plug-In . SVG Version: 6.00 Build 0)  -->
<svg version="1.1" id="Layer_1" xmlns="http://www.w3.org/2000/svg" xmlns:xlink="http://www.w3.org/1999/xlink" x="0px" y="0px"
	 viewBox="0 0 165 68" style="enable-background:new 0 0 165 68;" xml:space="preserve">
<style type="text/css">
	.st0{fill:#FFFFFF;}
	.st1{fill:#E5B6B9;}
</style>
<g>
	<path class="st0" d="M75.8,22.2h-3.7v-0.5c0.5,0,0.8-0.1,1-0.2c0.2-0.1,0.3-0.4,0.3-0.7v-4.2h-5.7v4.2c0,0.4,0.1,0.6,0.2,0.7
		c0.2,0.1,0.6,0.2,1.1,0.2v0.5h-3.7v-0.5c0.6,0,0.9-0.1,1.1-0.2c0.1-0.1,0.2-0.4,0.2-0.7v-8.4c0-0.3-0.1-0.5-0.2-0.6
		c-0.2-0.1-0.6-0.2-1.1-0.2v-0.5h3.6v0.5c-0.5,0-0.9,0.1-1,0.2c-0.2,0.1-0.2,0.3-0.2,0.6V16h5.7v-3.6c0-0.3-0.1-0.5-0.3-0.6
		c-0.2-0.1-0.5-0.2-1-0.2v-0.5h3.6v0.5c-0.5,0-0.9,0.1-1.1,0.2c-0.1,0.1-0.2,0.3-0.2,0.6v8.4c0,0.4,0.1,0.6,0.2,0.7
		c0.2,0.1,0.6,0.2,1.2,0.2V22.2z"/>
	<path class="st0" d="M84,22.2h-3.8v-0.5c0.5,0,0.9-0.1,1.1-0.2c0.2-0.1,0.3-0.3,0.3-0.6v-8.3c0-0.3-0.1-0.6-0.3-0.7
		c-0.2-0.1-0.6-0.2-1.1-0.2v-0.5H84v0.5c-0.2,0-0.4,0-0.5,0c-0.1,0-0.3,0.1-0.4,0.1c-0.2,0.1-0.3,0.2-0.4,0.3
		c-0.1,0.1-0.1,0.3-0.1,0.5v8.3c0,0.3,0.1,0.5,0.2,0.6c0.2,0.1,0.6,0.2,1.1,0.2V22.2z"/>
	<path class="st0" d="M97.3,19.5l-1.1,2.8h-7.9v-0.5c0.5,0,0.9-0.1,1.2-0.2c0.2-0.1,0.3-0.4,0.3-0.7v-8.3c0-0.4-0.1-0.6-0.3-0.7
		c-0.2-0.1-0.6-0.2-1.2-0.2v-0.5h4v0.5c-0.7,0-1.1,0.1-1.3,0.2c-0.2,0.1-0.3,0.4-0.3,0.7v8.3c0,0.3,0.1,0.5,0.2,0.7
		c0.2,0.1,0.4,0.2,0.8,0.2h1.8c0.7,0,1.3-0.2,1.8-0.6c0.5-0.4,1-1,1.5-1.8L97.3,19.5z"/>
	<path class="st0" d="M110.3,19.5l-1.1,2.8h-7.9v-0.5c0.5,0,0.9-0.1,1.2-0.2c0.2-0.1,0.3-0.4,0.3-0.7v-8.3c0-0.4-0.1-0.6-0.3-0.7
		c-0.2-0.1-0.6-0.2-1.2-0.2v-0.5h4v0.5c-0.7,0-1.1,0.1-1.3,0.2c-0.2,0.1-0.3,0.4-0.3,0.7v8.3c0,0.3,0.1,0.5,0.2,0.7
		c0.2,0.1,0.4,0.2,0.8,0.2h1.8c0.7,0,1.3-0.2,1.8-0.6c0.5-0.4,1-1,1.5-1.8L110.3,19.5z"/>
	<path class="st0" d="M121.4,11.6c-0.3,0-0.6,0.1-0.9,0.3c-0.1,0.1-0.2,0.1-0.3,0.3c-0.1,0.1-0.2,0.3-0.3,0.5l-2.8,5v3.3
		c0,0.3,0.1,0.5,0.2,0.6c0.2,0.1,0.7,0.2,1.3,0.2v0.5h-4.2v-0.5c0.3,0,0.6,0,0.8-0.1c0.2,0,0.4-0.1,0.5-0.1c0.2-0.1,0.3-0.3,0.3-0.7
		v-3.1l-3-5.5c-0.1-0.2-0.3-0.4-0.5-0.5c-0.2-0.1-0.5-0.2-0.8-0.2v-0.5h3.7v0.5c-0.3,0-0.5,0-0.7,0c-0.2,0-0.4,0-0.5,0.1
		c-0.1,0.1-0.1,0.1-0.1,0.2c0,0.1,0,0.2,0.1,0.2l2.5,4.7l2.5-4.5c0.1-0.1,0.1-0.2,0.1-0.3c0-0.1,0-0.2-0.1-0.3
		c-0.1-0.1-0.5-0.2-1.2-0.2v-0.5h3.3V11.6z"/>
	<path class="st0" d="M75.5,35c-0.6,0-1,0.1-1.1,0.2c-0.1,0.1-0.2,0.4-0.2,0.8v3.6h-0.7l-0.2-0.7c-0.7,0.6-1.7,0.9-2.9,0.9
		c-1.5,0-2.7-0.5-3.5-1.6c-0.9-1.1-1.3-2.5-1.3-4.2c0-1.7,0.5-3.1,1.4-4.2c0.9-1.1,2.1-1.7,3.5-1.7c0.3,0,0.5,0,0.7,0
		c0.2,0,0.5,0.1,0.7,0.1c0.1,0,0.2,0.1,0.3,0.1c0.1,0,0.2,0.1,0.3,0.1c0.2-0.1,0.4-0.1,0.5-0.2c0.2-0.1,0.4-0.1,0.5-0.2l1.1,2.9
		c-0.1,0-0.1,0.1-0.2,0.1c-0.1,0-0.1,0.1-0.2,0.1c-0.2-0.3-0.4-0.7-0.6-0.9c-0.2-0.3-0.5-0.5-0.8-0.8c-0.7-0.6-1.5-0.8-2.4-0.8
		c-0.5,0-1,0.1-1.5,0.4c-0.4,0.3-0.9,0.6-1.2,1.1c-0.8,1-1.2,2.2-1.2,3.6c0,1.6,0.4,2.8,1.1,3.8c0.3,0.4,0.7,0.8,1.2,1.1
		c0.5,0.3,0.9,0.4,1.5,0.4c0.4,0,0.7,0,1-0.1c0.3-0.1,0.6-0.2,0.9-0.4c0.2-0.1,0.4-0.3,0.5-0.4c0.1-0.1,0.2-0.3,0.3-0.5
		c0.1-0.2,0.1-0.4,0.1-0.6v-1.2c0-0.4-0.1-0.6-0.3-0.8C72.6,35,72.2,35,71.6,35v-0.6h3.9V35z"/>
	<path class="st0" d="M90.1,39.5h-4V39c0.5,0,0.8,0,1-0.1c0.2-0.1,0.4-0.2,0.4-0.3c0,0,0-0.1,0-0.1c0-0.1,0-0.1,0-0.2
		c0-0.1,0-0.1-0.1-0.2c0-0.1-0.1-0.2-0.1-0.3c0-0.1-0.1-0.2-0.1-0.3l-0.7-2.1h-4.4l-0.8,2.3c-0.1,0.1-0.1,0.2-0.1,0.3
		c0,0.1,0,0.2,0,0.2c0,0.1,0,0.2,0.1,0.3c0.1,0.2,0.5,0.3,1.3,0.3v0.5h-3.4V39c0.3,0,0.5,0,0.7-0.1c0.2-0.1,0.3-0.2,0.5-0.4
		c0.1-0.1,0.1-0.2,0.2-0.4c0.1-0.1,0.1-0.3,0.2-0.5l3.2-9.1l0.8-0.4l3.8,9.9c0.1,0.4,0.3,0.6,0.5,0.8c0.2,0.2,0.6,0.2,1,0.2V39.5z
		 M86.3,34.9l-2.1-5.4l-1.9,5.4H86.3z"/>
	<path class="st0" d="M102.9,36.7l-1.1,2.8h-7.9V39c0.5,0,0.9-0.1,1.2-0.2c0.2-0.1,0.3-0.4,0.3-0.7v-8.3c0-0.4-0.1-0.6-0.3-0.7
		c-0.2-0.1-0.6-0.2-1.2-0.2v-0.5h4v0.5c-0.7,0-1.1,0.1-1.3,0.2c-0.2,0.1-0.3,0.4-0.3,0.7v8.3c0,0.3,0.1,0.5,0.2,0.7
		c0.2,0.1,0.4,0.2,0.8,0.2h1.8c0.7,0,1.3-0.2,1.8-0.6c0.5-0.4,1-1,1.5-1.8L102.9,36.7z"/>
	<path class="st0" d="M115.9,36.7l-1.1,2.8h-7.9V39c0.5,0,0.9-0.1,1.2-0.2c0.2-0.1,0.3-0.4,0.3-0.7v-8.3c0-0.4-0.1-0.6-0.3-0.7
		c-0.2-0.1-0.6-0.2-1.2-0.2v-0.5h4v0.5c-0.7,0-1.1,0.1-1.3,0.2c-0.2,0.1-0.3,0.4-0.3,0.7v8.3c0,0.3,0.1,0.5,0.2,0.7
		c0.2,0.1,0.4,0.2,0.8,0.2h1.8c0.7,0,1.3-0.2,1.8-0.6c0.5-0.4,1-1,1.5-1.8L115.9,36.7z"/>
	<path class="st0" d="M128.8,36.6c0.1,0,0.1,0.1,0.2,0.1c0.1,0,0.1,0.1,0.2,0.1c-0.2,0.5-0.4,0.9-0.5,1.4c-0.2,0.5-0.3,0.9-0.5,1.4
		h-8.2V39c0.5,0,0.8-0.1,1.1-0.2c0.2-0.2,0.3-0.4,0.3-0.7v-8.2c0-0.1,0-0.2,0-0.3c-0.1-0.1-0.1-0.3-0.2-0.3
		c-0.2-0.2-0.6-0.3-1.1-0.3v-0.5h7.9c0.2,0.5,0.4,0.9,0.5,1.4c0.2,0.4,0.4,0.9,0.5,1.4c-0.1,0-0.1,0.1-0.2,0.1
		c-0.1,0-0.1,0.1-0.2,0.1c-0.2-0.4-0.5-0.8-0.8-1.1c-0.3-0.3-0.5-0.5-0.8-0.7c-0.6-0.4-1.2-0.6-2-0.6h-1.7c-0.4,0-0.6,0.1-0.8,0.2
		c-0.2,0.1-0.2,0.4-0.2,0.7v3.6h2.4c0.5,0,0.9-0.1,1.1-0.3c0.2-0.3,0.4-0.8,0.4-1.6h0.5v4.4h-0.5c0-0.8-0.1-1.4-0.4-1.6
		c-0.2-0.2-0.5-0.3-1.1-0.3h-2.4v4c0,0.3,0.1,0.6,0.2,0.7c0.1,0.1,0.2,0.1,0.4,0.2c0.1,0,0.3,0,0.5,0h1.8c0.8,0,1.5-0.2,2-0.5
		c0.3-0.2,0.6-0.4,0.8-0.8C128.2,37.4,128.5,37,128.8,36.6z"/>
	<path class="st0" d="M142.8,39.5h-2.1c-0.5-0.9-1-1.8-1.5-2.7c-0.5-0.9-1-1.8-1.5-2.7h-2.1V38c0,0.4,0.1,0.6,0.3,0.8
		c0.2,0.1,0.6,0.2,1.2,0.2v0.5h-4V39c0.6,0,1-0.1,1.2-0.2c0.2-0.2,0.3-0.4,0.3-0.8v-8.2c0-0.3-0.1-0.5-0.3-0.7
		c-0.2-0.2-0.6-0.2-1.2-0.2v-0.5h4.9c2.4,0,3.7,1,3.7,2.9c0,0.7-0.2,1.3-0.5,1.7c-0.5,0.7-1.3,1-2.4,1.2c0.4,0.7,0.8,1.4,1.2,2.1
		c0.4,0.7,0.8,1.4,1.2,2.1c0.1,0.2,0.3,0.4,0.6,0.5c0.2,0.1,0.6,0.1,1,0.1V39.5z M140.7,31.2c0-0.7-0.2-1.2-0.7-1.6
		c-0.5-0.4-1.1-0.6-1.9-0.6h-1.4c-0.4,0-0.7,0.1-0.8,0.2c-0.2,0.1-0.2,0.4-0.2,0.7v3.7h2.6c0.7,0,1.3-0.2,1.7-0.6
		c0.2-0.2,0.4-0.5,0.5-0.7C140.7,31.9,140.7,31.5,140.7,31.2z"/>
	<path class="st0" d="M155.3,28.9c-0.3,0-0.6,0.1-0.9,0.3c-0.1,0.1-0.2,0.1-0.3,0.3s-0.2,0.3-0.3,0.5l-2.8,5v3.3
		c0,0.3,0.1,0.5,0.2,0.6c0.2,0.1,0.7,0.2,1.3,0.2v0.5h-4.2V39c0.3,0,0.6,0,0.8-0.1c0.2,0,0.4-0.1,0.5-0.1c0.2-0.1,0.3-0.3,0.3-0.7
		V35l-3-5.5c-0.1-0.2-0.3-0.4-0.5-0.5c-0.2-0.1-0.5-0.2-0.8-0.2v-0.5h3.7v0.5c-0.3,0-0.5,0-0.7,0c-0.2,0-0.4,0-0.5,0.1
		c-0.1,0.1-0.1,0.1-0.1,0.2c0,0.1,0,0.2,0.1,0.2l2.5,4.7l2.5-4.5c0.1-0.1,0.1-0.2,0.1-0.3c0-0.1,0-0.2-0.1-0.3
		c-0.1-0.1-0.5-0.2-1.2-0.2v-0.5h3.3V28.9z"/>
	<path class="st0" d="M74,53.5c0.1,0,0.2,0.1,0.2,0.1c0.1,0,0.2,0.1,0.2,0.1c-0.4,1.1-1,1.9-1.7,2.4c-0.7,0.6-1.6,0.9-2.7,0.9
		c-0.7,0-1.4-0.1-2-0.4c-0.6-0.3-1.1-0.7-1.6-1.3c-0.8-1.1-1.2-2.4-1.2-4.1c0-1.7,0.4-3,1.2-4.1c0.9-1.1,2-1.7,3.3-1.7
		c0.9,0,1.6,0.2,2.2,0.5c0.1-0.1,0.3-0.1,0.5-0.2c0.2-0.1,0.3-0.1,0.5-0.2c0.2,0.5,0.4,1,0.6,1.5c0.2,0.5,0.4,1,0.6,1.5
		c-0.1,0-0.1,0.1-0.2,0.1c-0.1,0-0.1,0.1-0.2,0.1c-0.4-0.7-0.9-1.3-1.4-1.7c-0.6-0.4-1.2-0.7-1.8-0.8c-0.1,0-0.2,0-0.3,0
		c-0.1,0-0.2,0-0.3,0c-0.7,0-1.4,0.3-1.9,0.9c-0.2,0.2-0.4,0.4-0.5,0.6c-0.7,0.9-1,2.1-1,3.6c0,1.4,0.4,2.5,1.1,3.5
		c0.1,0.1,0.2,0.2,0.3,0.3c0.1,0.1,0.2,0.2,0.3,0.3c0.3,0.3,0.7,0.6,1.1,0.7c0.4,0.1,0.8,0.2,1.3,0.2c0.7,0,1.4-0.3,2-0.8
		C73.1,54.9,73.6,54.2,74,53.5z"/>
	<path class="st0" d="M89.3,56.8h-4v-0.5c0.5,0,0.8,0,1-0.1s0.4-0.2,0.4-0.3c0,0,0-0.1,0-0.1c0-0.1,0-0.1,0-0.2c0-0.1,0-0.1-0.1-0.2
		c0-0.1-0.1-0.2-0.1-0.3c0-0.1-0.1-0.2-0.1-0.3l-0.7-2.1h-4.4l-0.8,2.3c-0.1,0.1-0.1,0.2-0.1,0.3c0,0.1,0,0.2,0,0.2
		c0,0.1,0,0.2,0.1,0.3c0.1,0.2,0.5,0.3,1.3,0.3v0.5h-3.4v-0.5c0.3,0,0.5,0,0.7-0.1c0.2-0.1,0.3-0.2,0.5-0.4c0.1-0.1,0.1-0.2,0.2-0.4
		c0.1-0.1,0.1-0.3,0.2-0.5l3.2-9.1l0.8-0.4l3.8,9.9c0.1,0.4,0.3,0.6,0.5,0.8c0.2,0.2,0.6,0.2,1,0.2V56.8z M85.5,52.1l-2.1-5.4
		l-1.9,5.4H85.5z"/>
	<path class="st0" d="M100.8,45.6l1.1,2.6c-0.1,0-0.1,0.1-0.2,0.1c-0.1,0-0.1,0.1-0.2,0.1c-0.4-0.7-0.9-1.3-1.3-1.6
		c-0.3-0.2-0.6-0.4-1-0.5c-0.3-0.1-0.7-0.2-1-0.2H97c-0.1,0-0.2,0-0.3,0c-0.1,0-0.2,0-0.3,0c-0.1,0-0.2,0-0.3,0
		c-0.1,0-0.2,0-0.2,0.1c-0.3,0.1-0.4,0.4-0.4,0.8v3.6h2.4c0.5,0,0.9-0.1,1.1-0.3c0.2-0.3,0.4-0.8,0.4-1.5h0.5v4.5h-0.5
		c0-0.8-0.1-1.4-0.4-1.7c-0.2-0.2-0.6-0.4-1.1-0.4h-2.4v4c0,0.4,0.1,0.7,0.2,0.8c0.2,0.1,0.6,0.2,1.3,0.2v0.5h-4v-0.5
		c0.6,0,0.9-0.1,1.1-0.2c0.1-0.1,0.2-0.4,0.2-0.8v-8.2c0-0.3-0.1-0.5-0.2-0.6c-0.2-0.2-0.6-0.3-1.2-0.3v-0.5H100.8z"/>
	<path class="st0" d="M114.8,53.8c0.1,0,0.1,0.1,0.2,0.1c0.1,0,0.1,0.1,0.2,0.1c-0.2,0.5-0.4,0.9-0.5,1.4c-0.2,0.5-0.3,0.9-0.5,1.4
		h-8.2v-0.5c0.5,0,0.8-0.1,1.1-0.2c0.2-0.2,0.3-0.4,0.3-0.7v-8.2c0-0.1,0-0.2,0-0.3c-0.1-0.1-0.1-0.3-0.2-0.3
		c-0.2-0.2-0.6-0.3-1.1-0.3v-0.5h7.9c0.2,0.5,0.4,0.9,0.5,1.4c0.2,0.4,0.4,0.9,0.5,1.4c-0.1,0-0.1,0.1-0.2,0.1
		c-0.1,0-0.1,0.1-0.2,0.1c-0.2-0.4-0.5-0.8-0.8-1.1c-0.3-0.3-0.5-0.5-0.8-0.7c-0.6-0.4-1.2-0.6-2-0.6h-1.7c-0.4,0-0.6,0.1-0.8,0.2
		c-0.2,0.1-0.2,0.4-0.2,0.7v3.6h2.4c0.5,0,0.9-0.1,1.1-0.3c0.2-0.3,0.4-0.8,0.4-1.6h0.5v4.4H112c0-0.8-0.1-1.4-0.4-1.6
		c-0.2-0.2-0.5-0.3-1.1-0.3h-2.4v4c0,0.3,0.1,0.6,0.2,0.7c0.1,0.1,0.2,0.1,0.4,0.2c0.1,0,0.3,0,0.5,0h1.8c0.8,0,1.5-0.2,2-0.5
		c0.3-0.2,0.6-0.4,0.8-0.8C114.2,54.6,114.5,54.3,114.8,53.8z"/>
</g>
<path class="st0" d="M14.8,17.3v13c0,1.1,0.3,1.9,0.8,2.4c0.6,0.5,1.6,0.7,3.1,0.7v1.2h-11v-1.2c1.5,0,2.5-0.2,3.1-0.7
	c0.6-0.5,0.9-1.3,0.9-2.4V4c0-1-0.3-1.7-0.8-2.1c-0.6-0.5-1.7-0.7-3.2-0.7V0h11v1.2c-1.4,0-2.5,0.2-3.1,0.7C15.1,2.3,14.8,3,14.8,4
	v12.1 M33.5,16.1V4c0-1-0.3-1.7-1-2.1c-0.7-0.5-1.6-0.7-3-0.7V0h11v1.2c-1.4,0-2.5,0.2-3.1,0.7C36.8,2.3,36.5,3,36.5,4v26.3
	c0,1.1,0.3,1.9,0.9,2.4c0.6,0.5,1.6,0.7,3.1,0.7v1.2h-11v-1.2c1.3,0,2.3-0.2,3-0.7c0.7-0.5,1-1.3,1-2.4v-13"/>
<path class="st1" d="M19.3,43.1c1.4,0,2.4-0.2,2.9-0.6c0.5-0.4,0.8-1,0.8-1.8V19.5c0-1-0.3-1.6-0.8-1.9c-0.5-0.4-1.5-0.5-2.9-0.5
	v-0.9h10.1v0.9c-1.6,0-2.7,0.2-3.3,0.5c-0.5,0.3-0.7,1-0.7,1.9v21.1c0,0.8,0.2,1.4,0.6,1.8c0.4,0.4,1.2,0.6,2.2,0.6h4
	c1.8,0,3.5-0.6,5.1-1.7c1.6-1.1,2.9-2.5,4-4.5l0.8,0.4L39.3,44h-20V43.1z"/>
<g>
	<path class="st0" d="M49.2,33.4v1.2c2.2,0,3.6,0.2,4.2,0.7c0.5,0.4,0.5,1.2,0,2.3l-8.2,14.4L40.9,44l-0.7,1.5h-1.9l4.7,8.6V64
		c0,1-0.3,1.7-1,2.1c-0.7,0.4-2,0.7-4,0.7V68h13v-1.2c-2,0-3.3-0.2-4-0.7c-0.6-0.4-0.9-1.1-0.9-2.1V53.4L54.7,38
		c0.7-1.4,1.3-2.3,1.9-2.7c0.7-0.5,1.7-0.8,2.9-0.8v-1.2H49.2z"/>
</g>
<g>
	<g>
		<path class="st1" d="M41.4,63.7c-2.5,1-5.1,1.5-7.8,1.5c-3.6-0.1-7.1-1-10.3-2.7c-3.1-1.8-5.8-4.3-7.6-7.3c-1.8-3-3-6.4-3.2-10
			c-0.1-1.7,0-3.6-0.1-5.4l0-3.5h-0.9l0,3.5c0,1.8,0,3.6,0.1,5.4c0.2,3.7,1.6,7.2,3.6,10.2c2,3,4.8,5.5,8,7.2
			c3.2,1.7,6.8,2.6,10.4,2.6c2.7,0,5.3-0.5,7.8-1.4V63.7z"/>
		<path class="st1" d="M51.6,13.8c1.9,3,3.1,6.5,3.3,10c0.1,1.8,0,3.6,0,5.4l0,2.7h0.7l0-2.7c0-1.8,0-3.6-0.1-5.4
			c0-0.5-0.1-0.9-0.2-1.3l-0.2-1.3c-0.1-0.4-0.2-0.9-0.3-1.3c-0.1-0.4-0.2-0.9-0.4-1.3c-0.3-0.8-0.6-1.7-1-2.5
			c-0.4-0.8-0.9-1.6-1.3-2.4c-0.2-0.4-0.5-0.7-0.8-1.1c-0.3-0.4-0.5-0.7-0.8-1.1c-0.6-0.7-1.2-1.4-1.9-1.9c-1.3-1.3-2.8-2.3-4.4-3.2
			c-1.9-1-3.9-1.7-5.9-2.2v0.4c2,0.4,4,1.1,5.8,2C46.9,8.3,49.7,10.7,51.6,13.8z"/>
	</g>
	<g>
		<path class="st1" d="M50,15.2c1.7,2.7,2.8,5.9,3,9.1c0.1,1.6,0.1,3.3,0.1,4.9l0,2.6h0.9l0-2.6c0-1.7,0.1-3.3-0.1-5
			c-0.2-3.4-1.4-6.7-3.2-9.5c-1.8-2.8-4.4-5.1-7.4-6.8c-1.6-0.9-3.4-1.5-5.2-1.9v0.6c1.7,0.4,3.4,1,4.9,1.9
			C45.8,10.2,48.2,12.4,50,15.2z"/>
		<path class="st1" d="M41.4,61.7c-2.5,1.1-5.1,1.7-7.8,1.8c-3.3-0.1-6.6-0.9-9.5-2.6c-2.8-1.7-5.3-4.1-7-7c-1.7-2.9-2.8-6.1-3-9.5
			c-0.1-1.7,0-3.4-0.1-5.1l0-2.8h-0.7l0,2.8c0,1.7-0.1,3.4,0.1,5.2c0.2,3.5,1.4,6.9,3.3,9.8c1.8,2.9,4.4,5.2,7.4,6.9
			c3,1.6,6.3,2.5,9.6,2.5c2.7,0,5.3-0.6,7.8-1.6V61.7z"/>
	</g>
</g>
</svg>
