<?xml version="1.0" encoding="utf-8"?>
<!-- Generator: Adobe Illustrator 22.1.0, SVG Export Plug-In . SVG Version: 6.00 Build 0)  -->
<svg version="1.1" id="Layer_1" xmlns="http://www.w3.org/2000/svg" xmlns:xlink="http://www.w3.org/1999/xlink" x="0px" y="0px"
	 viewBox="0 0 82 125" style="enable-background:new 0 0 82 125;" xml:space="preserve">
<style type="text/css">
	.st0{fill:#5A1C20;}
	.st1{fill:#FFFFFF;}
</style>
<path class="st0" d="M41,125L41,125c-22.4,0-40.7-18.3-40.7-40.7V40.7C0.3,18.3,18.6,0,41,0h0c22.4,0,40.7,18.3,40.7,40.7v43.6
	C81.7,106.7,63.4,125,41,125z"/>
<g>
	<path class="st1" d="M17.5,41.7v16.2c0,1.4,0.4,2.4,1.1,3c0.7,0.6,2,0.9,3.9,0.9v1.5H8.8v-1.5c1.9,0,3.2-0.3,3.9-0.9
		c0.7-0.6,1.1-1.6,1.1-3V25.1c0-1.2-0.3-2.1-1-2.6c-0.8-0.6-2.1-0.9-4-0.9v-1.5h13.7v1.5c-1.8,0-3.1,0.3-3.9,0.9
		c-0.7,0.5-1.1,1.4-1.1,2.6v15.1 M40.9,40.2V25.1c0-1.2-0.4-2.1-1.3-2.6c-0.8-0.6-2-0.9-3.7-0.9v-1.5h13.7v1.5
		c-1.8,0-3.1,0.3-3.9,0.9c-0.8,0.5-1.2,1.4-1.2,2.6v32.8c0,1.4,0.4,2.4,1.2,3c0.7,0.6,2,0.9,3.9,0.9v1.5H35.9v-1.5
		c1.7,0,2.9-0.3,3.7-0.9c0.9-0.6,1.3-1.6,1.3-3V41.7"/>
	<path class="st1" d="M23.2,73.8c1.7,0,2.9-0.3,3.6-0.8c0.6-0.5,0.9-1.2,0.9-2.3V44.5c0-1.2-0.3-2-0.9-2.4c-0.7-0.4-1.9-0.7-3.6-0.7
		v-1.2h12.6v1.2c-2,0-3.4,0.2-4.1,0.7c-0.6,0.4-0.9,1.2-0.9,2.4v26.3c0,1,0.3,1.8,0.8,2.3c0.5,0.5,1.5,0.8,2.8,0.8h5
		c2.3,0,4.4-0.7,6.4-2.1c1.9-1.3,3.6-3.2,5-5.6l0.9,0.5L48.1,75H23.2V73.8z"/>
	<g>
		<path class="st1" d="M60.4,61.7v1.5c2.7,0,4.5,0.3,5.3,0.9c0.7,0.5,0.7,1.5,0.1,2.9L55.5,85l-5.4-10.1l-0.8,1.9H47l5.8,10.8v12.3
			c0,1.3-0.4,2.2-1.2,2.6c-0.9,0.5-2.5,0.8-5,0.8v1.5h16.2v-1.5c-2.5,0-4.2-0.3-5-0.8c-0.8-0.5-1.2-1.3-1.2-2.6V86.6l10.8-19.1
			c0.9-1.7,1.7-2.8,2.3-3.3c0.9-0.6,2.1-0.9,3.6-0.9v-1.5H60.4z"/>
	</g>
	<g>
		<g>
			<path class="st1" d="M50.7,99.5c-3.1,1.2-6.4,1.9-9.8,1.9c-4.5-0.1-8.9-1.2-12.8-3.4c-3.8-2.2-7.2-5.3-9.5-9.1
				c-2.3-3.8-3.8-8-4-12.4c-0.1-2.2,0-4.4-0.1-6.7l0-4.4h-1.1l0,4.4c0,2.2-0.1,4.5,0.1,6.7c0.3,4.6,1.9,9,4.4,12.7
				c2.5,3.8,6,6.8,9.9,9c4,2.1,8.5,3.2,12.9,3.2c3.3,0,6.6-0.6,9.8-1.8V99.5z"/>
			<path class="st1" d="M63.4,37.3c2.4,3.7,3.9,8.1,4.1,12.5c0.1,2.2,0,4.5,0,6.7l0,3.4h0.8l0-3.4c0-2.2,0-4.5-0.2-6.7
				c0-0.6-0.1-1.1-0.2-1.7l-0.3-1.7c-0.1-0.5-0.3-1.1-0.4-1.6c-0.1-0.5-0.3-1.1-0.5-1.6c-0.4-1.1-0.8-2.1-1.3-3.1
				c-0.5-1-1.1-2-1.7-2.9c-0.3-0.5-0.6-0.9-1-1.4c-0.3-0.4-0.7-0.9-1-1.3c-0.8-0.8-1.5-1.7-2.3-2.4c-1.6-1.6-3.5-2.8-5.4-4
				c-2.3-1.2-4.8-2.2-7.4-2.7v0.5c2.5,0.5,5,1.3,7.2,2.5C57.6,30.4,61.1,33.5,63.4,37.3z"/>
		</g>
		<g>
			<path class="st1" d="M61.4,39c2.1,3.4,3.5,7.3,3.8,11.4c0.1,2,0.1,4.1,0.1,6.1l0,3.3h1.1l0-3.3c0-2.1,0.1-4.1-0.1-6.2
				c-0.3-4.2-1.8-8.3-4-11.8C60,34.9,56.7,32.1,53,30c-2.1-1.1-4.2-1.8-6.5-2.3v0.7c2.1,0.5,4.2,1.3,6.1,2.3
				C56.2,32.8,59.2,35.6,61.4,39z"/>
			<path class="st1" d="M50.7,97c-3.1,1.4-6.4,2.2-9.8,2.2c-4.1-0.1-8.2-1.1-11.8-3.2c-3.5-2.1-6.6-5.1-8.8-8.7
				c-2.1-3.6-3.5-7.7-3.7-11.9c-0.1-2.1-0.1-4.2-0.1-6.4l0-3.5h-0.9l0,3.5c0,2.1-0.1,4.3,0.1,6.4c0.3,4.3,1.8,8.6,4.1,12.2
				c2.3,3.6,5.5,6.5,9.2,8.6c3.7,2,7.8,3.1,11.9,3.1c3.3,0,6.7-0.7,9.8-2V97z"/>
		</g>
	</g>
</g>
</svg>
