<?xml version="1.0" encoding="utf-8"?>
<!-- Generator: Adobe Illustrator 22.1.0, SVG Export Plug-In . SVG Version: 6.00 Build 0)  -->
<svg version="1.1" id="Layer_1" xmlns="http://www.w3.org/2000/svg" xmlns:xlink="http://www.w3.org/1999/xlink" x="0px" y="0px"
	 viewBox="0 0 38 49" style="enable-background:new 0 0 38 49;" xml:space="preserve">
<style type="text/css">
	.st0{fill:#E5B6B9;}
	.st1{fill:#7A879A;}
</style>
<path class="st0" d="M5.4,12.5v9.4c0,0.8,0.2,1.4,0.6,1.7c0.4,0.3,1.2,0.5,2.3,0.5v0.9H0.4v-0.9c1.1,0,1.8-0.2,2.2-0.5
	c0.4-0.3,0.6-0.9,0.6-1.7v-19c0-0.7-0.2-1.2-0.6-1.5C2.2,1,1.4,0.8,0.4,0.8V0h7.9v0.8c-1,0-1.8,0.2-2.2,0.5C5.6,1.7,5.4,2.2,5.4,2.9
	v8.8 M18.9,11.6V2.9c0-0.7-0.2-1.2-0.7-1.5C17.7,1,17,0.8,16.1,0.8V0H24v0.8c-1,0-1.8,0.2-2.2,0.5c-0.5,0.3-0.7,0.8-0.7,1.5v19
	c0,0.8,0.2,1.4,0.7,1.7c0.4,0.3,1.2,0.5,2.2,0.5v0.9h-7.9v-0.9c1,0,1.7-0.2,2.1-0.5c0.5-0.4,0.7-0.9,0.7-1.7v-9.4"/>
<path class="st1" d="M8.7,31c1,0,1.7-0.1,2.1-0.4c0.4-0.3,0.5-0.7,0.5-1.3V14.1c0-0.7-0.2-1.2-0.5-1.4c-0.4-0.3-1.1-0.4-2.1-0.4
	v-0.7H16v0.7c-1.2,0-1.9,0.1-2.3,0.4c-0.3,0.2-0.5,0.7-0.5,1.4v15.2c0,0.6,0.1,1,0.4,1.3c0.3,0.3,0.8,0.4,1.6,0.4h2.9
	c1.3,0,2.5-0.4,3.7-1.2c1.1-0.8,2.1-1.8,2.9-3.2l0.5,0.3l-2,4.9H8.7V31z"/>
<g>
	<path class="st0" d="M30.2,24.1v0.9c1.6,0,2.6,0.2,3,0.5c0.4,0.3,0.4,0.8,0,1.7l-5.9,10.4l-3.1-5.8l-0.5,1.1h-1.3l3.4,6.2v7.1
		c0,0.7-0.2,1.3-0.7,1.5c-0.5,0.3-1.5,0.5-2.9,0.5V49h9.4v-0.9c-1.4,0-2.4-0.2-2.9-0.5c-0.5-0.3-0.7-0.8-0.7-1.5v-7.7l6.2-11
		c0.5-1,1-1.6,1.4-1.9c0.5-0.4,1.2-0.5,2.1-0.5v-0.9H30.2z"/>
</g>
<g>
	<g>
		<path class="st1" d="M24.6,45.9C22.8,46.6,20.9,47,19,47c-2.6,0-5.2-0.7-7.4-1.9c-2.2-1.3-4.2-3.1-5.5-5.3
			c-1.3-2.2-2.2-4.6-2.3-7.2c-0.1-1.3,0-2.6,0-3.9l0-2.5H3.1l0,2.5c0,1.3,0,2.6,0.1,3.9c0.2,2.6,1.1,5.2,2.6,7.4
			c1.4,2.2,3.5,4,5.8,5.2c2.3,1.2,4.9,1.8,7.5,1.8c1.9,0,3.8-0.4,5.6-1V45.9z"/>
		<path class="st1" d="M32,9.9c1.4,2.2,2.2,4.7,2.4,7.2c0.1,1.3,0,2.6,0,3.9l0,1.9h0.5l0-1.9c0-1.3,0-2.6-0.1-3.9
			c0-0.3-0.1-0.7-0.1-1l-0.2-1c-0.1-0.3-0.2-0.6-0.2-0.9c-0.1-0.3-0.2-0.6-0.3-0.9c-0.2-0.6-0.4-1.2-0.8-1.8c-0.3-0.6-0.6-1.1-1-1.7
			C32,9.5,31.8,9.3,31.6,9c-0.2-0.3-0.4-0.5-0.6-0.8c-0.4-0.5-0.9-1-1.4-1.4c-0.9-0.9-2-1.6-3.1-2.3c-1.3-0.7-2.8-1.3-4.3-1.6v0.3
			c1.4,0.3,2.9,0.8,4.2,1.5C28.6,6,30.6,7.7,32,9.9z"/>
	</g>
	<g>
		<path class="st1" d="M30.8,10.9c1.2,2,2,4.2,2.2,6.6c0.1,1.2,0,2.4,0.1,3.6l0,1.9h0.6l0-1.9c0-1.2,0-2.4-0.1-3.6
			c-0.2-2.4-1-4.8-2.3-6.8C30,8.6,28.1,6.9,26,5.7c-1.2-0.6-2.5-1.1-3.8-1.3v0.4c1.2,0.3,2.4,0.7,3.5,1.4
			C27.8,7.3,29.5,8.9,30.8,10.9z"/>
		<path class="st1" d="M24.6,44.4c-1.8,0.8-3.7,1.2-5.6,1.3c-2.4,0-4.7-0.7-6.8-1.9c-2-1.2-3.8-3-5.1-5c-1.2-2.1-2-4.4-2.1-6.9
			c-0.1-1.2,0-2.5-0.1-3.7l0-2H4.4l0,2c0,1.2,0,2.5,0.1,3.7c0.2,2.5,1,5,2.4,7c1.3,2.1,3.2,3.8,5.3,5c2.1,1.1,4.5,1.8,6.9,1.8
			c1.9,0,3.8-0.4,5.6-1.2V44.4z"/>
	</g>
</g>
</svg>
